<svg xmlns="http://www.w3.org/2000/svg" width="843" height="843" fill="none" xmlns:v="https://vecta.io/nano"><g><path d="M0 0h843v843H0z"/><path d="M385.127 133c16.166-28 56.58-28 72.746 0l312.202 540.75c16.166 28-4.041 63-36.373 63H109.298c-32.332 0-52.539-35-36.373-63L385.127 133z" stroke="#000"/></g><path d="M381.663 131c17.706-30.667 61.969-30.667 79.674 0l312.202 540.75c17.706 30.667-4.426 69-39.837 69H109.298c-35.411 0-57.542-38.333-39.837-69L381.663 131zm72.746 4c-14.626-25.333-51.192-25.333-65.818 0L76.389 675.75c-14.626 25.333 3.657 57 32.909 57h624.404c29.253 0 47.535-31.667 32.909-57L454.409 135z" fill="#326082" stroke="#000" stroke-width="2"/><path d="M422 155L733.769 695H110.23L422 155Z" fill="#fff" /><g stroke="#000" stroke-width="2" stroke-linejoin="round"><path d="M732.036 694H111.963L421.999 156.999L732.036 694Z" stroke-opacity=".1"/><path d="M422 129.5a25.5 25.5 0 0 1 22.083 12.75l311.77 540c4.412 7.643 4.55 17.004.413 24.755l-.413.745c-4.555 7.889-12.974 12.75-22.083 12.75H110.23a25.5 25.5 0 0 1-22.083-38.25l311.762-539.986.446-.745a25.5 25.5 0 0 1 20.82-12.005l.826-.014zm0 77.499a1 1 0 0 0-.793.39l-.073.11L155.264 668a1 1 0 0 0 .866 1.5h531.74a1 1 0 0 0 .865-1.5l-265.87-460.501a1 1 0 0 0-.865-.5z" fill="#326082"/></g><path d="M395.49 347l.117.003.229.015.107.009.246.034.083.013.249.052.101.023.235.068.101.031.263.097.062.024.275.125.057.027c.219.111.434.238.643.385l.313.24 42.154 34.652c.148.122.288.251.419.386.326.336.596.707.809 1.102 1.065 1.976.708 4.534-1.097 6.125l-21.066 18.578-19.859 17.515a5.29 5.29 0 0 1-.608.461l-.224.136-.086.05-.26.133-.06.029-.225.096-.113.045-.206.07-.125.04-.195.052-.148.036-.217.04-.107.018-.235.027-.109.011-.22.01-.12.004c-.077 0-.155-.003-.232-.006l-.099-.005-.225-.02-.119-.013-.211-.033-.125-.024-.187-.041-.143-.036-.207-.062-.092-.029-.219-.08-.11-.044-.18-.079-.137-.066-.172-.09-.102-.058-.195-.117-.09-.06-.18-.125-.105-.08-.152-.122-.114-.098-.139-.127-.097-.097-.149-.156-.067-.077-.145-.173-.089-.118-.113-.156-.075-.115-.114-.184-.05-.092-.111-.208-.055-.121-.089-.204-.049-.133-.069-.192-.045-.155a4.99 4.99 0 0 1-.176-.932l-.021-.393-.214-12.311c-13.107 3.699-25.224 10.167-35.498 19.017l-3.919 3.376c-11.449 9.863-20.244 22.371-25.643 36.469l-2.837 7.406c-4.19 10.939-6.251 22.615-6.075 34.428l.38 25.649-36.82-.538-.38-25.65c-.242-16.337 2.608-32.485 8.403-47.614l2.835-7.405a126.02 126.02 0 0 1 35.465-50.436l3.92-3.376c16.896-14.555 37.396-24.451 59.519-28.788l-.364-20.973.008-.395c.007-.125.019-.249.034-.371.008-.057.02-.113.029-.169l.031-.185c.011-.052.024-.103.036-.154.016-.068.031-.135.05-.202.013-.045.028-.09.042-.135l.065-.199c.017-.046.036-.092.054-.138a6.19 6.19 0 0 1 .078-.188c.019-.043.04-.085.06-.127l.089-.178c.023-.044.047-.087.072-.13a4.84 4.84 0 0 1 .103-.171l.075-.116a4.5 4.5 0 0 1 .111-.159 4.97 4.97 0 0 1 .093-.123 4.3 4.3 0 0 1 .12-.148 2.58 2.58 0 0 1 .082-.096 5.97 5.97 0 0 1 .153-.165l.079-.081c.053-.052.108-.102.162-.152.029-.025.057-.051.085-.076.055-.047.111-.091.167-.135l.096-.077c.055-.041.112-.08.169-.119.036-.024.07-.051.107-.075.277-.181.572-.335.879-.46.023-.009.045-.017.068-.025a4.46 4.46 0 0 1 .252-.092c.02-.007.042-.012.062-.019.084-.026.169-.052.254-.074l.098-.023c.076-.019.152-.035.229-.05l.101-.017c.077-.013.154-.025.231-.035l.108-.011.228-.018c.036-.002.072-.003.108-.004l.226-.003z" fill="#326082"/><path d="M395.49 347l.014-1h0l-.014 1zm.117.003l-.037.999h0l.037-.999zm.229.015l.085-.997h-.001l-.084.997zm.107.009l-.106.995h0l.106-.995zm.246.034l.158-.988h0l-.158.988zm.083.013l-.174.985h0l.174-.985zm.249.052l.227-.974h-.001l-.226.974zm.101.023l-.247.969h0l.247-.969zm.235.068l.296-.956h0l-.296.956zm.101.031l-.316.949h0l.316-.949zm.263.097l.37-.929h0l-.37.929zm.062.024l.383-.924h0l-.383.924zm.275.125l-.439.899h0l.439-.899zm.057.027l.451-.892h0l-.451.892zm.643.385l.608-.793-.016-.013-.016-.011-.576.817zm.313.24l.635-.772-.013-.011-.013-.01-.609.793zm42.154 34.652l.635-.773h0l-.635.773zm.419.386l.717-.697h0l-.717.697zm.809 1.102l-.88.475h0l.88-.475zm-1.097 6.125l.662.75h0l-.662-.75zm-21.066 18.578l-.661-.75h0l.661.75zm-19.859 17.515l.661.75h0l-.661-.75zm-.608.461l-.546-.838h0l.546.838zm-.224.136l.501.865h0l-.501-.865zm-.086.05l-.485-.875v.001l.485.874zm-.26.133l.432.902h0l-.432-.902zm-.06.029l-.419-.907h0l.419.907zm-.225.096l.373.928h0l-.373-.928zm-.113.045l-.35-.937h0l.35.937zm-.206.07l.308.952h0l-.308-.952zm-.125.04l-.281-.959h-.001l.282.959zm-.195.052l.242.971h0l-.242-.971zm-.148.036l-.211-.977h0l.211.977zm-.217.04l.166.987v-.001l-.166-.986zm-.107.018l-.144-.99h0l.144.99zm-.235.027l.096.996h0l-.096-.996zm-.109.011l-.074-.997h0l.074.997zm-.22.01l.029.999h0l-.029-.999zm-.12.004l-.004-1h0l.004 1zm-.232-.006l-.042.999h0l.042-.999zm-.099-.005l.062-.998h0l-.062.998zm-.225-.02l-.107.995h0l.107-.995zm-.119-.013l.131-.992h0l-.131.992zm-.211-.033l-.173.985h0l.173-.985zm-.125-.024l.198-.98h0l-.198.98zm-.187-.041l-.235.972h0l.235-.972zm-.143-.036l.262-.965h0l-.262.965zm-.207-.062l-.303.954h0l.303-.954zm-.092-.029l.321-.947h0l-.321.947zm-.219-.08l-.363.932h0l.363-.932zm-.11-.044l-.384.923h0l.384-.923zm-.18-.079l.42-.908h0l-.42.908zm-.137-.066l-.447.895h.001l.446-.895zm-.172-.09l.48-.878h-.001l-.479.878zm-.102-.058l-.499.866h0l.499-.866zm-.195-.117l.538-.843h-.001l-.537.843zm-.09-.06l-.555.832h0l.555-.832zm-.18-.125l.591-.807h0l-.591.807zm-.105-.08l-.611.792h0l.611-.792zm-.152-.122l.641-.767h0l-.641.767zm-.114-.098l-.664.747h0l.664-.747zm-.139-.127l.692-.722h-.001l-.691.722zm-.097-.097l-.711.703h0l.711-.703zm-.149-.156l.741-.671h0l-.741.671zm-.067-.077l-.755.655h0l.755-.655zm-.145-.173l.784-.62v-.001l-.784.621zm-.089-.118l-.803.596h0l.803-.596zm-.113-.156l.825-.564h0l-.825.564zm-.075-.115l-.841.541h0l.841-.541zm-.114-.184l.865-.503h0l-.865.503zm-.05-.092l-.875.483h0l.875-.483zm-.111-.208l.898-.441h0l-.898.441zm-.055-.121l-.909.415h0l.909-.415zm-.089-.204l.928-.373h0l-.928.373zm-.049-.133l-.939.346h0l.939-.346zm-.069-.192l.952-.306h0l-.952.306zm-.045-.155l-.961.275h0l.961-.275zm-.176-.932l-.999.052.001.02.002.019.996-.091zm-.021-.393l-1 .017v.018l.001.017.999-.052zm-.214-12.311l1-.017-.023-1.298-1.248.353.271.962zm-35.498 19.017l.653.758h0l-.653-.758zm-3.919 3.376l-.653-.758h0l.653.758zm-25.643 36.469l.933.357h0l-.933-.357zm-2.837 7.406l-.934-.358h0l.934.358zm-6.075 34.428l-1 .014h0l1-.014zm.38 25.649l-.014 1 1.03.015-.016-1.03-1 .015zm-36.82-.538l-1 .015.015.971.97.014.015-1zm-.38-25.65l1-.015h0l-1 .015zm8.403-47.614l.933.358h0l-.933-.358zm2.835-7.405l-.933-.358h0l.933.358zm35.465-50.436l-.652-.757h0l.652.757zm3.92-3.376l.653.758h0l-.653-.758zm59.519-28.788l.192.982.822-.161-.014-.838-1 .017zm-.364-20.973l-.999-.02-.001.018.001.019.999-.017zm.008-.395l-.998-.056-.001.018-.001.018 1 .02zm.034-.371l-.991-.128h0l.991.128zm.029-.169l.987.162h0l-.987-.162zm.031-.185l-.98-.199h0l.98.199zm.036-.154l.973.23h0l-.973-.23zm.05-.202l-.963-.271h0l.963.271zm.042-.135l.954.299h0l-.954-.299zm.065-.199l-.94-.339h0l.94.339zm.054-.138l.93.369v-.001l-.93-.368zm.078-.188l-.913-.407h0l.913.407zm.06-.127l.901.433h0l-.901-.433zm.089-.178l-.883-.47h0l.883.47zm.072-.13l.868.497h0l-.868-.497zm.103-.171l-.846-.533h0l.846.533zm.075-.116l.831.556h0l-.831-.556zm.111-.159l-.808-.588h-.001l.809.588zm.093-.123l.789.614h0l-.789-.614zm.12-.148l-.765-.644h0l.765.644zm.082-.096l.749.663h0l-.749-.663zm.153-.165l-.718-.696h0l.718.696zm.079-.081l.702.712h0l-.702-.712zm.162-.152l-.669-.742h0l.669.742zm.085-.076l.653.758h0l-.653-.758zm.167-.135l-.62-.785h0l.62.785zm.096-.077l.601.8h0l-.601-.8zm.169-.119l-.568-.823h0l.568.823zm.107-.075l.546.837h.001l-.547-.837zm.879-.46l-.375-.927h-.001l.376.927zm.068-.025l.363.932h0l-.363-.932zm.252-.092l-.314-.95h0l.314.95zm.062-.019l.302.954h0l-.302-.954zm.254-.074l-.252-.968h0l.252.968zm.098-.023l.232.972h0l-.232-.972zm.229-.05l-.187-.982h0l.187.982zm.101-.017l.167.986h0l-.167-.986zm.231-.035l-.121-.992h0l.121.992zm.108-.011l.099.995h.001l-.1-.995zm.228-.018l-.054-.999h0l.054.999zm.108-.004l.032.999h0l-.032-.999zm.226-.003l-.014 1 .094.002.037-.999.038-.999-.141-.004-.014 1zm.117.003l-.037.999.181.012.085-.996.084-.997-.275-.017-.038.999zm.229.015l-.085.996.086.008.106-.995.107-.994-.129-.012-.085.997zm.107.009l-.106.995.195.026.157-.987.158-.988-.297-.04-.107.994zm.246.034l-.157.987.066.011.174-.985.175-.984-.1-.017-.158.988zm.083.013l-.174.985.197.041.226-.974.226-.974-.3-.062-.175.984zm.249.052l-.226.974.08.018.247-.969.247-.969-.121-.028-.227.974zm.101.023l-.247.969.187.054.295-.955.296-.956-.284-.081-.247.969zm.235.068l-.295.955.08.025.316-.949.316-.949-.121-.038-.296.956zm.101.031l-.316.949.208.077.371-.929.37-.929-.317-.117-.316.949zm.263.097l-.371.929.027.01.023.009.383-.924.383-.924-.057-.022-.388.922zm.062.024l-.383.924.219.1.439-.899.438-.898-.33-.151-.383.924zm.275.125l-.439.899.029.014c.027.012.023.011.017.007l.45-.893.451-.892-.059-.028-.449.893zm.057.027l-.45.893c.178.09.35.192.516.309l.577-.817.576-.817c-.252-.178-.509-.33-.768-.46l-.451.892zm.643.385l-.608.794.313.24.608-.794.609-.793-.314-.24-.608.793zm.313.24l-.635.773 42.154 34.651.635-.772.635-.773-42.154-34.651-.635.772zm42.154 34.652l-.635.772a4.14 4.14 0 0 1 .336.31l.718-.696.717-.697c-.156-.161-.323-.315-.501-.462l-.635.773zm.419.386l-.718.696a3.97 3.97 0 0 1 .647.881l.88-.475.88-.474c-.256-.476-.581-.923-.972-1.325l-.717.697zm.809 1.102l-.88.475c.853 1.582.564 3.629-.878 4.9l.661.75.662.75c2.167-1.911 2.592-4.981 1.315-7.349l-.88.474zm-1.097 6.125l-.661-.75-21.066 18.578.661.75.661.75 21.067-18.578-.662-.75zm-21.066 18.578l-.661-.75-19.86 17.515.662.75.661.75 19.859-17.515-.661-.75zm-19.859 17.515l-.662-.75a4.33 4.33 0 0 1-.492.373l.546.838.546.838c.246-.161.489-.342.723-.549l-.661-.75zm-.608.461l-.546-.838-.18.109.502.865.501.865.269-.163-.546-.838zm-.224.136l-.502-.865-.035.02-.023.014.474.881.484.875.075-.044.028-.016-.501-.865zm-.086.05l-.485-.874-.207.105.432.902.432.902.312-.16-.484-.875zm-.26.133l-.432-.902-.029.015-.018.009.419.907.42.908.059-.029-.419-.908zm-.06.029l-.419-.907-.18.076.374.927.373.928.272-.116-.42-.908zm-.225.096l-.374-.927-.089.035.35.937.351.937.135-.054-.373-.928zm-.113.045l-.35-.937-.163.056.307.951.308.952.249-.085-.351-.937zm-.206.07l-.307-.951-.099.032.281.959.282.96.151-.048-.308-.952zm-.125.04l-.282-.959-.154.041.241.97.242.971.235-.063-.282-.96zm-.195.052l-.241-.97-.118.029.211.977.21.978.18-.043-.242-.971zm-.148.036l-.211-.977-.172.031.166.986.166.986.261-.048-.21-.978zm-.217.04l-.166-.986-.085.014.144.99.144.99.129-.021-.166-.987zm-.107.018l-.144-.99-.187.022.096.995.096.996.284-.033-.145-.99zm-.235.027l-.096-.995-.087.009.074.997.073.997.086-.007.046-.005-.096-.996zm-.109.011l-.074-.997-.175.007.029 1 .029.999.264-.012-.073-.997zm-.22.01l-.029-1-.042.002-.03.001-.022.001.003 1 .004 1 .096-.003.049-.002-.029-.999zm-.12.004l-.004-1a4.81 4.81 0 0 1-.185-.005l-.043.999-.042.999.278.007-.004-1zm-.232-.006l.043-.999-.08-.004-.062.998-.063.998.12.006.042-.999zm-.099-.005l.062-.998-.18-.016-.107.994-.107.995.269.023.063-.998zm-.225-.02l.108-.994-.096-.011-.131.992-.131.991.143.017.107-.995zm-.119-.013l.131-.992-.169-.026-.173.985-.173.985.253.039.131-.991zm-.211-.033l.173-.985-.1-.019-.198.98-.197.98.149.029.173-.985zm-.125-.024l.198-.98-.151-.033-.234.972-.235.972.225.049.197-.98zm-.187-.041l.234-.972-.115-.029-.262.965-.262.965.17.043.235-.972zm-.143-.036l.262-.965-.166-.05-.303.953-.303.954.248.073.262-.965zm-.207-.062l.303-.953-.074-.023-.321.947-.32.947.109.036.303-.954zm-.092-.029l.321-.947-.176-.065-.364.932-.363.932.262.095.32-.947zm-.219-.08l.364-.932-.089-.035-.385.923-.384.923.131.053.363-.932zm-.11-.044l.385-.923-.145-.064-.42.908-.419.908.215.094.384-.923zm-.18-.079l.42-.908-.111-.053-.446.895-.446.895.164.079.419-.908zm-.137-.066l.446-.895-.138-.073-.48.878-.48.877.205.108.447-.895zm-.172-.09l.479-.878-.081-.046-.5.866-.499.866.121.069.48-.877zm-.102-.058l.5-.866-.157-.094-.538.843-.538.843.234.14.499-.866zm-.195-.117l.537-.843-.072-.048-.555.831-.555.832.107.071.538-.843zm-.09-.06l.555-.831-.144-.101-.591.807-.59.807.215.15.555-.832zm-.18-.125l.591-.807-.085-.064-.611.791-.611.792.126.096.59-.808zm-.105-.08l.611-.791-.122-.098-.641.767-.642.767.183.147.611-.792zm-.152-.122l.641-.767-.091-.079-.664.748-.664.747.136.118.642-.767zm-.114-.098l.664-.748-.111-.101-.692.722-.692.722.167.152.664-.747zm-.139-.127l.691-.722-.077-.078-.711.703-.711.703.116.116.692-.722zm-.097-.097l.711-.703-.119-.124-.741.671-.742.671.18.188.711-.703zm-.149-.156l.741-.671-.02-.023-.033-.039-.755.656-.755.655.026.03.054.063.742-.671zm-.067-.077l.755-.656-.116-.137-.784.62-.785.62.175.208.755-.655zm-.145-.173l.784-.621-.07-.094-.803.597-.803.596.107.142.785-.62zm-.089-.118l.803-.597-.091-.123-.825.564-.826.564.136.188.803-.596zm-.113-.156l.825-.564-.058-.092-.842.541-.841.541.09.138.826-.564zm-.075-.115l.842-.54-.091-.147-.865.503-.865.502.138.223.841-.541zm-.114-.184l.865-.503-.02-.036-.019-.037-.876.484-.875.483.017.032.043.079.865-.502zm-.05-.092l.876-.484-.089-.165-.898.441-.898.44.134.251.875-.483zm-.111-.208l.898-.441c-.005-.009-.007-.015-.011-.023l-.013-.03-.019-.043-.91.416-.909.415.021.049.045.097.898-.44zm-.055-.121l.91-.416-.071-.161-.928.373-.927.374.107.245.909-.415zm-.089-.204l.928-.373-.039-.106-.938.346-.939.346.061.161.927-.374zm-.049-.133l.938-.346-.055-.152-.952.306-.952.307.082.231.939-.346zm-.069-.192l.952-.306-.035-.124-.962.275-.961.275.054.187.952-.307zm-.045-.155l.962-.275a4.09 4.09 0 0 1-.143-.747l-.995.09-.996.091a6.06 6.06 0 0 0 .211 1.116l.961-.275zm-.176-.932l.998-.052-.02-.393-.999.052-.999.052.021.393.999-.052zm-.021-.393l1-.018-.214-12.31-1 .017-1 .018.214 12.31 1-.017zm-.214-12.311l-.271-.962c-13.246 3.738-25.494 10.274-35.88 19.221l.653.758.653.758c10.161-8.754 22.148-15.153 35.117-18.812l-.272-.963zm-35.498 19.017l-.653-.758-3.919 3.376.653.758.653.757 3.919-3.375-.653-.758zm-3.919 3.376l-.653-.758a92.11 92.11 0 0 0-25.924 36.869l.934.358.933.357c5.341-13.942 14.039-26.313 25.363-36.069l-.653-.757zm-25.643 36.469l-.934-.358-2.837 7.406.934.358.934.358 2.836-7.407-.933-.357zm-2.837 7.406l-.934-.358c-4.236 11.059-6.318 22.862-6.141 34.8l1-.014.999-.015c-.173-11.686 1.866-23.236 6.01-34.055l-.934-.358zm-6.075 34.428l-1 .014.38 25.65 1-.015 1-.015-.381-25.649-.999.015zm.38 25.649l.015-1-36.82-.538-.015 1-.015 1 36.821.538.014-1zm-36.82-.538l1-.015-.38-25.65-1 .015-1 .014.38 25.651 1-.015zm-.38-25.65l1-.015c-.24-16.211 2.588-32.232 8.336-47.241l-.933-.358-.934-.357c-5.841 15.248-8.713 31.523-8.469 47.985l1-.014zm8.403-47.614l.933.358 2.836-7.405-.934-.358-.933-.358-2.836 7.406.934.357zm2.835-7.405l.934.358a125.01 125.01 0 0 1 35.184-50.036l-.653-.758-.652-.757a126.99 126.99 0 0 0-35.746 50.835l.933.358zm35.465-50.436l.653.758 3.92-3.376-.653-.758-.652-.757-3.92 3.376.652.757zm3.92-3.376l.653.758c16.762-14.44 37.103-24.261 59.058-28.564l-.192-.982-.193-.981c-22.29 4.369-42.949 14.342-59.978 29.012l.652.757zm59.519-28.788l1-.017-.364-20.974-1 .018-.999.017.363 20.974 1-.018zm-.364-20.973l1 .02.008-.395-1-.02-1-.02-.007.395.999.02zm.008-.395l.999.057c.006-.103.015-.203.027-.3l-.992-.128-.991-.128c-.019.147-.033.294-.041.443l.998.056zm.034-.371l.992.129c.006-.042.004-.014.024-.136l-.987-.162-.987-.162c-.003.019-.006.031-.013.071l-.02.132.991.128zm.029-.169l.987.162.024-.149-.98-.198-.98-.199c-.017.085-.033.193-.038.222l.987.162zm.031-.185l.98.199c.007-.033.008-.031.029-.123l-.973-.23-.973-.23c-.002.01-.029.114-.043.185l.98.199zm.036-.154l.973.23c.021-.085.028-.121.04-.161l-.963-.271-.963-.271c-.026.094-.048.193-.06.243l.973.23zm.05-.202l.963.271c.008-.028.009-.029.033-.107l-.954-.299-.954-.298c-.004.011-.033.099-.051.162l.963.271zm.042-.135l.954.299.052-.158-.941-.34-.94-.339a5.01 5.01 0 0 0-.079.24l.954.298zm.065-.199l.941.34c.01-.028.017-.045.043-.109l-.93-.369-.93-.368c-.01.027-.041.101-.064.167l.94.339zm.054-.138l.93.368a3.21 3.21 0 0 1 .062-.149l-.914-.407-.913-.407a5.07 5.07 0 0 0-.095.228l.93.367zm.078-.188l.914.407c.012-.027.025-.056.047-.101l-.901-.433-.901-.433-.072.153.913.407zm.06-.127l.901.433.07-.141-.882-.47-.883-.47c-.041.078-.078.153-.108.215l.902.433zm.089-.178l.882.47c.016-.03.035-.062.058-.103l-.868-.497-.868-.496c-.026.045-.056.099-.087.156l.883.47zm.072-.13l.868.497a4.94 4.94 0 0 1 .082-.136l-.847-.532-.846-.533-.125.208.868.496zm.103-.171l.847.532.059-.092-.831-.556-.832-.556-.089.139.846.533zm.075-.116l.831.556c.027-.041.057-.083.089-.126l-.809-.589-.809-.588a6.99 6.99 0 0 0-.134.192l.832.555zm.111-.159l.808.589c.023-.032.048-.064.074-.098l-.789-.614-.79-.614-.111.149.808.588zm.093-.123l.789.614c.031-.04.063-.079.096-.119l-.765-.643-.765-.644a5.37 5.37 0 0 0-.145.179l.79.613zm.12-.148l.765.643.066-.076-.749-.663-.749-.663c-.037.042-.071.083-.098.115l.765.644zm.082-.096l.749.663a4.65 4.65 0 0 1 .122-.132l-.718-.696-.718-.696c-.061.063-.122.129-.184.198l.749.663zm.153-.165l.718.696.063-.065-.702-.712-.701-.713-.096.098.718.696zm.079-.081l.702.712a4.82 4.82 0 0 1 .13-.121l-.67-.743-.669-.742c-.058.052-.126.114-.195.182l.702.712zm.162-.152l.67.743.068-.061-.653-.758-.652-.757c-.04.034-.088.078-.102.091l.669.742zm.085-.076l.653.758c.036-.031.074-.061.134-.109l-.62-.784-.62-.785c-.052.041-.126.099-.199.163l.652.757zm.167-.135l.62.784.077-.061-.601-.8-.601-.799c-.031.023-.058.045-.076.06s-.028.023-.039.031l.62.785zm.096-.077l.601.8c.034-.026.067-.048.136-.096l-.568-.823-.568-.823c-.044.031-.126.086-.202.143l.601.799zm.169-.119l.568.823c.017-.011.032-.022.043-.03a.84.84 0 0 0 .029-.021c.016-.011.017-.012.013-.01l-.546-.837-.547-.837c-.04.026-.074.05-.094.064l-.034.025.568.823zm.107-.075l.547.837c.222-.145.46-.27.708-.37l-.376-.927-.376-.927a6.22 6.22 0 0 0-1.051.55l.548.837zm.879-.46l.376.927c.006-.002.015-.005.022-.008s.02-.008.033-.012l-.363-.932-.363-.932-.08.03.375.927zm.068-.025l.363.932a4.33 4.33 0 0 1 .202-.075l-.313-.949-.314-.95a5.86 5.86 0 0 0-.301.11l.363.932zm.252-.092l.313.949c.022-.005.035-.009.051-.014l-.302-.954-.301-.953c-.013.003-.042.012-.075.022l.314.95zm.062-.019l.302.954c.076-.024.142-.044.204-.06l-.252-.968-.252-.968a6.93 6.93 0 0 0-.303.089l.301.953zm.254-.074l.252.968c.02-.005.023-.005.078-.019l-.232-.972-.233-.973c-.009.002-.072.017-.117.028l.252.968zm.098-.023l.232.972.185-.04-.188-.982-.187-.982a5.47 5.47 0 0 0-.275.059l.233.973zm.229-.05l.188.982c.022-.003.025-.004.03-.005a.53.53 0 0 0 .05-.008l-.167-.986-.167-.986c-.009.002-.016.003-.039.007a.88.88 0 0 0-.082.014l.187.982zm.101-.017l.167.986a3.34 3.34 0 0 1 .186-.028l-.122-.993-.121-.992c-.102.012-.199.028-.278.041l.168.986zm.231-.035l.122.993c.023-.003.018-.002.085-.009l-.099-.995-.1-.995c-.004.001-.081.008-.129.014l.121.992zm.108-.011l.1.995a4.02 4.02 0 0 1 .182-.015l-.054-.998-.054-.999a7.68 7.68 0 0 0-.274.022l.1.995zm.228-.018l.054.998.086-.003-.032-.999-.032-1-.13.005.054.999zm.108-.004l.032.999a3.8 3.8 0 0 1 .18-.002l.014-1 .014-1a7.84 7.84 0 0 0-.273.003l.033 1z" fill="#000"/><path d="M575.944 571.258l-.035.059-.137.218-.058.086-.15.202-.049.061-.169.199-.066.073-.173.174-.076.073-.212.184-.051.042-.242.18-.052.038a5.12 5.12 0 0 1-.647.377l-.363.159-50.697 20.183c-.179.071-.359.131-.54.181-.451.123-.907.181-1.356.177-2.244-.021-4.312-1.569-4.835-3.917l-11.553-51.945-.294-1.322c-.056-.255-.092-.507-.11-.754l-.009-.199-.005-.17.01-.273.003-.078.025-.244.015-.12.038-.215.025-.128.049-.196.04-.148.072-.215.032-.093.092-.225.043-.098.097-.197.055-.107.117-.2.053-.086.124-.184.07-.1.14-.181.059-.072.158-.178.073-.078.163-.162.069-.064.183-.16.077-.062.166-.128.13-.092.138-.092.134-.083.177-.101.098-.052.196-.097.121-.054.18-.074.141-.052.179-.061.131-.038.208-.055.11-.023.212-.042.147-.021.191-.024.136-.009.217-.011h.105l.235.003.133.011.221.02.141.021.2.033.158.035c.301.069.602.165.901.296l.355.171 11.871 6.279c3.141-13.491 3.277-27.526.339-41.104l-1.093-5.052c-3.194-14.758-9.917-28.507-19.602-40.085l-5.088-6.083a93.57 93.57 0 0 0-26.973-22.104l-22.388-12.209 17.66-31.691 22.387 12.21a129.37 129.37 0 0 1 37.304 30.57l5.088 6.081a128.86 128.86 0 0 1 27.11 55.436l1.092 5.053c4.757 21.98 3.69 44.827-3.051 66.319l17.89 9.463.342.197c.107.067.209.137.309.209.046.034.089.072.134.107s.1.076.147.117c.04.034.078.07.117.105.052.047.104.093.153.142.034.033.065.068.098.102l.143.153c.032.037.063.076.094.114a3.87 3.87 0 0 1 .128.159c.028.037.055.075.082.113l.113.164.079.126c.034.057.068.115.1.174l.065.12a5.67 5.67 0 0 1 .086.175c.022.046.043.093.063.14.024.056.046.112.068.168l.052.14a4 4 0 0 1 .061.185l.039.128.054.212.025.111a3.76 3.76 0 0 1 .038.212l.021.119a5.54 5.54 0 0 1 .029.259c.001.021.005.042.006.063.026.333.02.669-.019 1.002-.004.035-.011.07-.016.105l-.036.236c-.004.02-.009.04-.013.06-.018.089-.038.178-.06.267l-.025.087-.068.231-.034.095c-.025.073-.052.147-.081.219-.013.034-.028.067-.042.1-.03.07-.061.14-.094.209l-.046.091c-.038.076-.079.151-.122.225z" fill="#326082"/><path d="M575.944 571.258l.867.499h0l-.867-.499zm-.035.059l-.859-.511h0l.859.511zm-.137.218l.832.556h0l-.832-.556zm-.058.086l-.819-.573h-.001l.82.573zm-.15.202l.788.615h0l-.788-.615zm-.049.061l-.778-.628h0l.778.628zm-.169.199l.743.669h0l-.743-.669zm-.066.073l-.73-.684h0l.73.684zm-.173.174l.693.72h0l-.693-.72zm-.076.073l-.679-.735h0l.679.735zm-.212.184l.635.772h0l-.635-.772zm-.051.042l.624.782h0l-.624-.782zm-.242.18l-.575-.818h0l.575.818zm-.052.038l.564.825h0l-.564-.825zm-.647.377l.402.915.018-.008.017-.008-.437-.899zm-.363.159l.37.929.017-.006.016-.008-.403-.915zm-50.697 20.183l-.37-.929h0l.37.929zm-.54.181l.264.964h0l-.264-.964zm-1.356.177l.009-1h0l-.009 1zm-4.835-3.917l-.976.217h0l.976-.217zm-11.553-51.945l-.976.217h0l.976-.217zm-.294-1.322l.977-.217h0l-.977.217zm-.11-.754l.997-.074h0l-.997.074zm-.009-.199l-.999.034h0l.999-.034zm-.005-.17l1-.001h0l-1 .001zm.01-.273l-.999-.055h0l.999.055zm.003-.078l.997.071v-.001l-.997-.07zm.025-.244l-.993-.121h0l.993.121zm.015-.12l.989.145h0l-.989-.145zm.038-.215l-.982-.19v.001l.982.189zm.025-.128l.976.216h0l-.976-.216zm.049-.196l-.966-.258v.001l.966.257zm.04-.148l.958.288h0l-.958-.288zm.072-.215l-.944-.332v.001l.944.331zm.032-.093l.937.351h0l-.937-.351zm.092-.225l-.918-.397h0l.918.397zm.043-.098l.909.417h0l-.909-.417zm.097-.197l-.889-.458h0l.889.458zm.055-.107l.878.479h0l-.878-.479zm.117-.2l-.855-.52h0l.855.52zm.053-.086l.843.537h0l-.843-.537zm.124-.184l-.819-.574h0l.819.574zm.07-.1l.805.594v-.001l-.805-.593zm.14-.181l-.777-.63h0l.777.63zm.059-.072l.765.644v-.001l-.765-.643zm.158-.178l-.734-.678h0l.734.678zm.073-.078l.72.694h0l-.72-.694zm.163-.162l-.688-.725h0l.688.725zm.069-.064l.675.738h0l-.675-.738zm.183-.16l-.64-.769h0l.64.769zm.077-.062l-.625-.781h0l.625.781zm.166-.128l.592.806h0l-.592-.806zm.13-.092l-.567-.823h0l.567.823zm.138-.092l.54.842h0l-.54-.842zm.134-.083l-.513-.858h0l.513.858zm.177-.101l.479.878h0l-.479-.878zm.098-.052l-.461-.888h0l.461.888zm.196-.097l.421.907h0l-.421-.907zm.121-.054l-.398-.917h0l.398.917zm.18-.074l.362.932h0l-.362-.932zm.141-.052l-.334-.942h0l.334.942zm.179-.061l.298.955h0l-.298-.955zm.131-.038l-.272-.962h0l.272.962zm.208-.055l.23.973h0l-.23-.973zm.11-.023l-.208-.978h0l.208.978zm.212-.042l.165.986h0l-.165-.986zm.147-.021l-.135-.991h0l.135.991zm.191-.024l.095.995h0l-.095-.995zm.136-.009l-.067-.998h0l.067.998zm.217-.011l.022.999h.001l-.023-.999zm.105 0l-.001-1h0l.001 1zm.235.003l-.048.999h.001l.047-.999zm.133.011l.075-.997h0l-.075.997zm.221.02l-.121.993h0l.121-.993zm.141.021l.15-.989h0l-.15.989zm.2.033l-.191.981h0l.191-.981zm.158.035l.224-.974h-.001l-.223.974zm.901.296l.434-.901-.016-.008-.017-.007-.401.916zm.355.171l.467-.884-.016-.008-.017-.008-.434.9zm11.871 6.279l-.468.884 1.147.606.295-1.264-.974-.226zm.339-41.104l-.978.211h0l.978-.211zm-1.093-5.052l.977-.212h0l-.977.212zm-19.602-40.085l-.767.642h0l.767-.642zm-5.088-6.083l.767-.641h0l-.767.641zm-26.973-22.104l.479-.878h0l-.479.878zm-22.388-12.209l-.873-.487-.491.882.886.483.478-.878zm17.66-31.691l.479-.878-.87-.475-.482.866.873.487zm22.387 12.21l-.478.878h0l.478-.878zm37.304 30.57l-.767.642h0l.767-.642zm5.088 6.081l.767-.641h0l-.767.641zm27.11 55.436l.977-.211v-.001l-.977.212zm1.092 5.053l-.977.211h0l.977-.211zm-3.051 66.319l-.954-.3-.25.794.736.389.468-.883zm17.89 9.463l.5-.866-.016-.009-.016-.009-.468.884zm.342.197l.532-.847-.016-.009-.016-.01-.5.866zm.309.209l.591-.806h0l-.591.806zm.134.107l-.618.786h0l.618-.786zm.147.117l.648-.762h-.001l-.647.762zm.117.105l-.671.742h0l.671-.742zm.153.142l.702-.712v-.001l-.702.713zm.098.102l-.723.691h.001l.722-.691zm.143.153l.751-.66h0l-.751.66zm.094.114l-.771.636h0l.771-.636zm.128.159l.797-.603v-.001l-.797.604zm.082.113l-.815.58.001.001.814-.581zm.113.164l.837-.546h0l-.837.546zm.079.126l-.855.52h.001l.854-.52zm.1.174l.875-.485h0l-.875.485zm.065.12l-.888.46h0l.888-.46zm.086.175l.906-.424h-.001l-.905.424zm.063.14l-.919.396h0l.919-.396zm.068.168l.932-.361h0l-.932.361zm.052.14l-.943.333h0l.943-.333zm.061.185l.955-.296h0l-.955.296zm.039.128l-.963.27h0l.963-.27zm.054.212l.973-.228h0l-.973.228zm.025.111l-.978.206h0l.978-.206zm.038.212l.987-.165h0l-.987.165zm.021.119l-.99.14v.001l.99-.141zm.029.259l.995-.09h0l-.995.09zm.006.063l-.997.077h0l.997-.077zm-.019 1.002l.993.117h0l-.993-.117zm-.016.105l-.99-.138h0l.99.138zm-.036.236l.983.184h0l-.983-.184zm-.013.06l-.981-.196h0l.981.196zm-.06.267l.968.247h0l-.968-.247zm-.025.087l-.965-.265h0l.965.265zm-.068.231l.95.31h0l-.95-.31zm-.034.095l-.944-.33h0l.944.33zm-.081.219l.928.374v-.001l-.928-.373zm-.042.1l-.92-.393h0l.92.393zm-.094.209l.9.435h0l-.9-.435zm-.046.091l-.891-.454h0l.891.454zm-.122.225l-.866-.499a.84.84 0 0 0-.028.047l.859.511.86.512.042-.072-.867-.499zm-.035.059l-.859-.511-.109.174.831.555.832.556.165-.262-.86-.512zm-.137.218l-.831-.556-.046.069.819.573.819.574.071-.104-.832-.556zm-.058.086l-.82-.573-.119.16.789.615.788.615.181-.243-.819-.574zm-.15.202l-.789-.615-.038.048.778.628.779.628.058-.074-.788-.615zm-.049.061l-.778-.628-.135.158.744.669.743.669.205-.24-.779-.628zm-.169.199l-.744-.669-.052.058.73.684.729.684.08-.088-.743-.669zm-.066.073l-.73-.684-.137.138.694.72.693.72.209-.21-.729-.684zm-.173.174l-.694-.72-.061.058.679.735.678.735.091-.088-.693-.72zm-.076.073l-.679-.735-.168.146.635.773.635.772.255-.221-.678-.735zm-.212.184l-.635-.773-.022.018-.019.016.625.781.624.782.047-.039-.62-.785zm-.051.042l-.625-.781-.192.143.575.818.575.819.291-.217-.624-.782zm-.242.18l-.575-.818-.027.019-.015.011.565.826.564.825.053-.037-.565-.826zm-.052.038l-.565-.826a3.99 3.99 0 0 1-.52.303l.438.9.437.899a6.06 6.06 0 0 0 .774-.451l-.564-.825zm-.647.377l-.403-.916-.362.16.402.915.403.915.362-.159-.402-.915zm-.363.159l-.369-.929-50.698 20.183.37.929.37.929 50.697-20.183-.37-.929zm-50.697 20.183l-.37-.929c-.146.058-.29.106-.433.145l.263.965.264.964c.218-.059.434-.132.646-.216l-.37-.929zm-.54.181l-.263-.965c-.363.099-.726.145-1.084.142l-.009 1-.009.999c.54.006 1.088-.063 1.629-.212l-.264-.964zm-1.356.177l.009-1c-1.797-.017-3.45-1.258-3.868-3.134l-.976.217-.976.217c.628 2.82 3.112 4.674 5.802 4.699l.009-.999zm-4.835-3.917l.976-.217-11.553-51.945-.976.217-.976.217 11.553 51.945.976-.217zm-11.553-51.945l.976-.217-.293-1.322-.977.217-.976.217.294 1.322.976-.217zm-.294-1.322l.977-.217a4.19 4.19 0 0 1-.09-.611l-.997.074-.997.073a6.14 6.14 0 0 0 .131.898l.976-.217zm-.11-.754l.997-.074-.006-.16-1 .035-.999.034.011.238.997-.073zm-.009-.199l1-.035-.005-.136-1 .001h-1l.006.204.999-.034zm-.005-.17l1-.001.008-.217-.998-.055-.999-.055-.011.328h1zm.01-.273l.998.055.002-.041.001-.024-.998-.068-.998-.071-.003.081.998.068zm.003-.078l.997.07.021-.193-.993-.121-.993-.121-.03.294.998.071zm.025-.244l.993.121.011-.096-.989-.145-.989-.146-.019.145.993.121zm.015-.12l.989.145.031-.17-.982-.19-.982-.189-.045.258.989.146zm.038-.215l.982.19.019-.102-.976-.216-.976-.217-.031.155.982.19zm.025-.128l.976.216.039-.155-.966-.257-.966-.257-.059.236.976.217zm.049-.196l.966.257.032-.117-.958-.288-.958-.287-.048.177.966.258zm.04-.148l.958.288.057-.171-.943-.332-.944-.331-.086.259.958.287zm.072-.215l.943.332.011-.032.008-.023.007-.019-.937-.351-.936-.351-.027.074-.013.038.944.332zm.032-.093l.937.351.073-.179-.918-.397-.918-.397-.11.271.936.351zm.092-.225l.918.397.034-.078-.909-.417-.909-.417-.052.118.918.397zm.043-.098l.909.417.078-.157-.89-.457-.889-.458-.117.238.909.417zm.097-.197l.889.457.019-.037.014-.027.01-.02-.877-.48-.878-.479-.044.085-.022.043.889.458zm.055-.107l.878.479.093-.16-.854-.519-.855-.52-.14.241.878.479zm.117-.2l.854.52.042-.069-.843-.537-.844-.537-.064.103.855.52zm.053-.086l.843.537.1-.148-.819-.573-.819-.574-.149.222.844.536zm.124-.184l.819.573.056-.079-.805-.594-.805-.593-.084.119.819.574zm.07-.1l.805.593.113-.145-.778-.629-.777-.63-.168.218.805.593zm.14-.181l.777.629.047-.057-.765-.644-.766-.643-.07.085.777.63zm.059-.072l.765.643.128-.142-.735-.679-.734-.678-.19.213.766.643zm.158-.178l.735.679.058-.063-.72-.694-.72-.694-.087.094.734.678zm.073-.078l.72.694.132-.131-.689-.725-.688-.725-.195.193.72.694zm.163-.162l.689.725.055-.051-.675-.738-.675-.738-.082.077.688.725zm.069-.064l.675.738.147-.129-.639-.769-.64-.769-.218.192.675.737zm.183-.16l.639.769.062-.05-.624-.781-.625-.781-.092.074.64.769zm.077-.062l.624.781.134-.103-.592-.806-.592-.806-.199.153.625.781zm.166-.128l.592.806.105-.074-.567-.824-.567-.823-.155.109.592.806zm.13-.092l.567.824.111-.074-.54-.842-.541-.841-.164.11.567.823zm.138-.092l.54.842.108-.067-.514-.858-.513-.858-.162.1.541.841zm.134-.083l.514.858.142-.081-.479-.878-.48-.878-.21.121.513.858zm.177-.101l.479.878.079-.042-.46-.888-.461-.888-.117.062.48.878zm.098-.052l.46.888.157-.078-.421-.907-.422-.907-.235.116.461.888zm.196-.097l.421.907.098-.043-.398-.918-.398-.917-.145.064.422.907zm.121-.054l.398.918.144-.06-.362-.932-.362-.932-.216.089.398.917zm.18-.074l.362.932.113-.041-.334-.943-.334-.942-.169.062.362.932zm.141-.052l.334.943.143-.049-.298-.955-.298-.954-.215.073.334.942zm.179-.061l.298.955c.026-.009.049-.015.105-.03l-.272-.963-.272-.962-.157.046.298.954zm.131-.038l.272.963.166-.045-.23-.973-.23-.973-.25.066.272.962zm.208-.055l.23.973c.026-.006.01-.001.088-.018l-.208-.978-.208-.978-.047.009-.085.019.23.973zm.11-.023l.207.978.17-.034-.165-.986-.164-.986-.256.05.208.978zm.212-.042l.165.986.116-.016-.134-.991-.135-.991-.176.026.164.986zm.147-.021l.134.991.152-.02-.095-.995-.096-.996-.23.029.135.991zm.191-.024l.095.995.109-.007-.068-.997-.067-.998-.165.011.096.996zm.136-.009l.067.997.172-.009-.022-.999-.022-1-.262.013.067.998zm.217-.011l.023.999.041.001h.041v-1l-.001-1h-.036c-.019 0-.053-.001-.09 0l.022 1zm.105 0v1l.187.002.048-.999.048-.999-.284-.004.001 1zm.235.003l-.047.999.025.002.033.003.047.004.075-.997.075-.997-.053-.005-.107-.008-.048.999zm.133.011l-.076.997.176.016.121-.993.121-.993-.267-.024-.075.997zm.221.02l-.121.993.112.017.15-.989.15-.989-.17-.025-.121.993zm.141.021l-.15.989.159.025.191-.981.192-.982-.242-.04-.15.989zm.2.033l-.191.981.126.029.223-.975.223-.974-.189-.043-.192.982zm.158.035l-.223.975a4.1 4.1 0 0 1 .723.237l.401-.916.401-.916a5.98 5.98 0 0 0-1.078-.354l-.224.974zm.901.296l-.434.901.355.171.434-.901.434-.9-.355-.172-.434.901zm.355.171l-.468.884 11.871 6.279.468-.884.467-.884-11.871-6.279-.467.884zm11.871 6.279l.974.226c3.174-13.634 3.312-27.818.342-41.542l-.977.212-.978.211c2.907 13.433 2.772 27.318-.335 40.666l.974.227zm.339-41.104l.977-.212-1.093-5.052-.977.212-.978.211 1.093 5.052.978-.211zm-1.093-5.052l.977-.212c-3.228-14.916-10.023-28.812-19.812-40.515l-.767.642-.767.642c9.581 11.454 16.232 25.054 19.391 39.654l.978-.211zm-19.602-40.085l.767-.642-5.088-6.082-.767.641-.767.642 5.088 6.083.767-.642zm-5.088-6.083l.767-.641c-7.596-9.081-16.842-16.658-27.261-22.341l-.479.878-.479.878c10.2 5.563 19.25 12.98 26.685 21.868l.767-.642zm-26.973-22.104l.479-.878-22.388-12.209-.479.878-.478.878 22.387 12.209.479-.878zm-22.388-12.209l.874.487 17.66-31.692-.874-.486-.873-.487-17.66 31.691.873.487zm17.66-31.691l-.478.878 22.387 12.21.478-.878.479-.878-22.387-12.21-.479.878zm22.387 12.21l-.478.878a128.37 128.37 0 0 1 37.015 30.334l.767-.642.767-.642c-10.474-12.522-23.223-22.97-37.592-30.806l-.479.878zm37.304 30.57l-.767.642 5.088 6.081.767-.642.767-.641-5.088-6.082-.767.642zm5.088 6.081l-.767.642c13.29 15.888 22.517 34.754 26.899 55.006l.978-.212.977-.212c-4.451-20.567-13.822-39.729-27.32-55.865l-.767.641zm27.11 55.436l-.978.211 1.093 5.053.977-.211.978-.211-1.093-5.053-.977.211zm1.092 5.053l-.977.211c4.719 21.81 3.661 44.481-3.028 65.808l.954.3.954.299c6.792-21.656 7.868-44.679 3.075-66.83l-.978.212zm-3.051 66.319l-.468.883 17.891 9.464.467-.884.468-.884-17.891-9.463-.467.884zm17.89 9.463l-.5.866.342.197.5-.866.5-.866-.342-.197-.5.866zm.342.197l-.531.847a3.98 3.98 0 0 1 .248.169l.592-.807.591-.806c-.12-.088-.243-.171-.368-.25l-.532.847zm.309.209l-.592.807c.034.025.011.01.108.086l.618-.786.618-.786-.056-.045c-.025-.021-.062-.051-.105-.082l-.591.806zm.134.107l-.618.786.118.093.647-.762.647-.762c-.066-.057-.152-.123-.176-.141l-.618.786zm.147.117l-.647.762c.025.022.023.021.093.085l.671-.742.671-.741c-.007-.007-.086-.08-.14-.126l-.648.762zm.117.105l-.671.742.122.112.702-.712.702-.713c-.069-.068-.146-.135-.184-.17l-.671.741zm.153.142l-.702.712c.021.02.021.022.077.081l.723-.691.722-.692c-.008-.009-.072-.077-.118-.122l-.702.712zm.098.102l-.722.691.113.122.752-.66.751-.66a6.58 6.58 0 0 0-.172-.185l-.722.692zm.143.153l-.752.66a3.33 3.33 0 0 1 .075.09l.771-.636.771-.637-.114-.137-.751.66zm.094.114l-.771.636c.042.051.074.09.101.127l.798-.604.797-.604a5.34 5.34 0 0 0-.154-.192l-.771.637zm.128.159l-.798.603c.018.024.036.05.065.09l.815-.58.815-.58-.1-.136-.797.603zm.082.113l-.814.581a3.72 3.72 0 0 1 .089.129l.838-.546.837-.546a5.33 5.33 0 0 0-.136-.198l-.814.58zm.113.164l-.838.546c.019.029.038.06.062.1l.855-.52.854-.52-.096-.152-.837.546zm.079.126l-.854.52c.026.043.052.089.079.138l.875-.484.875-.485c-.037-.067-.078-.138-.121-.209l-.854.52zm.1.174l-.875.484.052.096.888-.46.888-.459c-.027-.054-.055-.104-.078-.146l-.875.485zm.065.12l-.888.46a3.63 3.63 0 0 1 .068.139l.906-.424.905-.424c-.032-.069-.066-.139-.103-.21l-.888.459zm.086.175l-.906.424a2.46 2.46 0 0 1 .05.112l.919-.396.918-.395a4.67 4.67 0 0 0-.075-.169l-.906.424zm.063.14l-.919.396c.017.039.034.081.054.134l.933-.362.932-.361c-.023-.06-.051-.13-.082-.202l-.918.395zm.068.168l-.933.361.042.112.943-.333.943-.333c-.022-.064-.047-.127-.063-.168l-.932.361zm.052.14l-.943.333c.016.044.031.092.049.148l.955-.296.955-.296c-.021-.068-.045-.144-.073-.222l-.943.333zm.061.185l-.955.295.031.103.963-.27.962-.27c-.016-.058-.034-.115-.046-.154l-.955.296zm.039.128l-.963.27c.015.053.029.109.043.17l.974-.228.973-.228c-.019-.081-.04-.166-.065-.254l-.962.27zm.054.212l-.974.228.021.089.978-.206.979-.206c-.011-.052-.026-.114-.031-.133l-.973.228zm.025.111l-.978.206c.009.045.017.094.03.17l.986-.164.987-.165c-.011-.065-.026-.158-.046-.253l-.979.206zm.038.212l-.986.164.017.095.99-.14.99-.141-.015-.092-.009-.051-.987.165zm.021.119l-.99.141a6.96 6.96 0 0 1 .023.208l.996-.09.995-.09c-.008-.093-.019-.199-.034-.31l-.99.141zm.029.259l-.996.09.003.037c.001.008.002.017.003.02l.996-.084.997-.078c-.002-.032-.006-.06-.007-.07l-.996.085zm.006.063l-.997.077a4.18 4.18 0 0 1-.015.807l.993.118.993.117a6.14 6.14 0 0 0 .023-1.197l-.997.078zm-.019 1.002l-.993-.118-.007.042c-.002.012-.004.026-.006.043l.99.138.991.137c0-.005.001-.009.005-.034.003-.019.008-.053.013-.091l-.993-.117zm-.016.105l-.99-.138-.029.19.983.184.983.184c.019-.105.033-.207.044-.283l-.991-.137zm-.036.236l-.983-.184-.011.048.981.196.98.195a.85.85 0 0 0 .016-.071l-.983-.184zm-.013.06l-.981-.196c-.015.076-.031.147-.048.215l.969.248.968.247a5.5 5.5 0 0 0 .072-.319l-.98-.195zm-.06.267l-.969-.248c-.004.014-.008.025-.01.033l-.011.037.965.265.964.265c.001-.003.002-.006.008-.026s.013-.045.021-.079l-.968-.247zm-.025.087l-.965-.265a3.74 3.74 0 0 1-.054.185l.951.311.95.31c.033-.1.06-.195.082-.276l-.964-.265zm-.068.231l-.951-.311c-.008.025-.001.002-.027.076l.944.33.944.329c.004-.01.006-.016.014-.038s.016-.045.026-.076l-.95-.31zm-.034.095l-.944-.33a3.55 3.55 0 0 1-.065.176l.928.373.928.373c.039-.095.071-.188.097-.263l-.944-.329zm-.081.219l-.927-.373c-.009.022-.008.017-.035.08l.92.393.919.393a4.99 4.99 0 0 0 .051-.119l-.928-.374zm-.042.1l-.92-.393c-.027.064-.051.118-.075.167l.901.435.9.435a5.37 5.37 0 0 0 .113-.251l-.919-.393zm-.094.209l-.901-.435-.036.072.891.454.891.453c.013-.024.035-.067.055-.109l-.9-.435zm-.046.091l-.891-.454c-.031.061-.064.121-.097.18l.866.499.867.499a6.48 6.48 0 0 0 .146-.271l-.891-.453z" fill="#000"/><path d="M341.298 591.85c10.032 9.758 22.151 17.184 35.494 21.685l4.89 1.65c14.287 4.82 29.523 6.131 44.423 3.825l7.828-1.21c11.562-1.79 22.689-5.722 32.809-11.595l21.973-12.752 18.071 31.135-21.974 12.753a130.02 130.02 0 0 1-45.374 16.035l-7.827 1.211c-20.606 3.189-41.678 1.375-61.436-5.29l-4.891-1.65c-21.418-7.226-40.554-19.901-55.546-36.743l-17.152 10.357-.346.192a5.38 5.38 0 0 1-.338.156c-.039.016-.078.029-.117.044-.074.029-.148.059-.222.084-.045.015-.091.027-.137.041-.07.022-.14.044-.211.062-.044.011-.088.02-.132.03l-.215.045c-.043.008-.086.014-.129.02a4.17 4.17 0 0 1-.217.029c-.044.005-.088.008-.133.012l-.212.012c-.041.002-.082.002-.123.003-.076.001-.151 0-.227-.003l-.122-.006c-.068-.004-.136-.01-.204-.017l-.138-.017a4.56 4.56 0 0 1-.204-.032l-.119-.021a5.75 5.75 0 0 1-.219-.05l-.11-.028a3.97 3.97 0 0 1-.212-.064l-.109-.035a4.89 4.89 0 0 1-.201-.077c-.038-.014-.076-.028-.113-.044-.08-.034-.158-.071-.237-.108-.019-.01-.038-.018-.057-.027a5.16 5.16 0 0 1-1.114-.753c-.017-.015-.032-.03-.048-.045-.065-.059-.129-.12-.192-.182l-.069-.073c-.054-.057-.107-.114-.158-.174-.022-.025-.043-.052-.065-.078-.05-.06-.099-.12-.147-.183-.021-.028-.042-.058-.063-.087l-.131-.189-.054-.085a6.09 6.09 0 0 1-.13-.221l-.033-.061a3.78 3.78 0 0 1-.116-.229l-.044-.095c-.033-.075-.065-.152-.095-.229l-.029-.077c-.032-.09-.062-.181-.09-.273l-.015-.051a4.99 4.99 0 0 1-.075-.298c-.003-.015-.008-.029-.011-.044a4.91 4.91 0 0 1-.052-.299c-.003-.02-.007-.039-.01-.059-.013-.099-.022-.199-.029-.3l-.006-.064c-.014-.244-.012-.494.011-.749l.049-.392 8.813-53.851a4.38 4.38 0 0 1 .053-.282c.082-.371.204-.722.36-1.051.116-.247.251-.481.403-.702 1.194-1.727 3.418-2.595 5.568-1.941.044.014.089.025.133.04l26.642 8.895 25.119 8.386c.018.006.036.015.054.021.227.079.443.169.648.272.079.04.155.083.23.126.029.017.059.032.087.049.084.05.166.104.246.158.018.013.037.024.055.037.067.047.132.097.196.147.032.025.064.049.095.075.056.046.11.094.164.143.033.029.066.057.098.088.049.046.096.094.142.142l.107.112c.041.045.079.091.118.137s.07.081.103.123c.044.056.085.114.126.171.024.033.048.064.07.097.042.061.08.123.119.186l.064.101c.039.067.075.135.111.204l.046.088c.033.068.065.136.095.204a2.62 2.62 0 0 1 .048.11 4.31 4.31 0 0 1 .084.214l.031.087a4.58 4.58 0 0 1 .071.227l.03.107c.018.064.034.129.049.194l.029.138a5.03 5.03 0 0 1 .037.214c.005.034.011.068.015.102.01.072.019.144.025.216.004.043.007.086.01.13l.01.204.001.132a5.33 5.33 0 0 1-.004.219 2.63 2.63 0 0 1-.005.086 4.18 4.18 0 0 1-.021.249c-.003.035-.008.07-.012.105-.009.069-.02.138-.032.206-.008.05-.018.099-.028.148l-.04.187-.031.113c-.021.079-.042.157-.067.234-.007.022-.015.044-.023.066a4.64 4.64 0 0 1-.084.234c-.016.04-.033.079-.05.118-.029.067-.057.134-.089.2-.017.036-.037.072-.055.109-.033.063-.065.128-.101.19-.023.041-.049.079-.073.119-.036.06-.071.12-.11.178-.025.037-.052.072-.077.108-.043.061-.085.121-.131.18-.024.031-.05.061-.076.091-.048.06-.097.12-.149.177-.027.031-.058.06-.086.09-.22.231-.465.448-.74.643l-.33.216-11.859 7.162z" fill="#326082"/><path d="M341.298 591.85l-.517-.856-1.109.669.929.904.697-.717zm35.494 21.685l.32-.947h0l-.32.947zm4.89 1.65l-.319.948h0l.319-.948zm44.423 3.825l-.153-.988h0l.153.988zm7.828-1.21l.153.988h0l-.153-.988zm32.809-11.595l-.502-.865h0l.502.865zm21.973-12.752l.864-.502-.502-.865-.864.502.502.865zm18.071 31.135l.502.865.865-.502-.502-.865-.865.502zm-21.974 12.753l-.502-.865h0l.502.865zm-45.374 16.035l-.153-.988h0l.153.988zm-7.827 1.211l.153.989h0l-.153-.989zm-61.436-5.29l-.32.947h0l.32-.947zm-4.891-1.65l.32-.948h0l-.32.948zm-55.546-36.743l.747-.665-.552-.62-.712.429.517.856zm-17.152 10.357l.485.874.016-.009.016-.009-.517-.856zm-.346.192l.452.891.017-.008.016-.009-.485-.874zm-.338.156l.387.922h0l-.387-.922zm-.117.044l-.364-.931h0l.364.931zm-.222.084l.319.948h0l-.319-.948zm-.137.041l-.292-.956h0l.292.956zm-.211.062l.249.968h0l-.249-.968zm-.132.03l-.222-.975h0l.222.975zm-.215.045l.177.984h0l-.177-.984zm-.129.02l-.151-.988h-.001l.152.988zm-.217.029l.107.994h0l-.107-.994zm-.133.012l-.078-.997h-.001l.079.997zm-.212.012l.034 1h0l-.034-1zm-.123.003l-.01-1h0l.01 1zm-.227-.003l-.037.999h0l.037-.999zm-.122-.006l.063-.998h0l-.063.998zm-.204-.017l-.104.994h0l.104-.994zm-.138-.017l.132-.991h0l-.132.991zm-.204-.032l-.174.985h0l.174-.985zm-.119-.021l.198-.981h0l-.198.981zm-.219-.05l-.242.97h0l.242-.97zm-.11-.028l.264-.964h0l-.264.964zm-.212-.064l-.307.952h.001l.306-.952zm-.109-.035l.328-.945h0l-.328.945zm-.201-.077l-.368.93.001.001.367-.931zm-.113-.044l.39-.921h0l-.39.921zm-.237-.108l-.436.9h0l.436-.9zm-.057-.027l.447-.895h0l-.447.895zm-1.114-.753l-.664.748h0l.664-.748zm-.048-.045l.673-.739h0l-.673.739zm-.192-.182l-.71.703h0l.71-.703zm-.069-.073l.725-.689h0l-.725.689zm-.158-.174l-.756.655v.001l.756-.656zm-.065-.078l.769-.64h0l-.769.64zm-.147-.183l-.797.603h0l.797-.603zm-.063-.087l.811-.586h0l-.811.586zm-.131-.189l-.836.548h0l.836-.548zm-.054-.085l.848-.531h0l-.848.531zm-.13-.221l-.874.486h0l.874-.486zm-.033-.061l.881-.473h0l-.881.473zm-.116-.229l-.905.426h0l.905-.426zm-.044-.095l.914-.407h0l-.914.407zm-.095-.229l-.933.359v.001l.933-.36zm-.029-.077l.94-.344h0l-.94.344zm-.09-.273l-.958.288h0l.958-.288zm-.015-.051l.961-.277h0l-.961.277zm-.075-.298l-.977.215h0l.977-.215zm-.011-.044l.979-.206h0l-.979.206zm-.052-.299l-.99.144h0l.99-.144zm-.01-.059l-.991.132h0l.991-.132zm-.029-.3l.997-.072h0l-.997.072zm-.006-.064l-.998.059h0l.998-.059zm.011-.749l-.992-.126-.003.019-.002.019.997.088zm.049-.392l-.986-.162-.003.018-.003.018.992.126zm8.813-53.851l-.987-.162h0l.987.162zm.053-.282l.976.217v-.001l-.976-.216zm.36-1.051l-.905-.427h0l.905.427zm.403-.702l.823.569h0l-.823-.569zm5.568-1.941l.291-.956h0l-.291.956zm.133.04l.316-.949h0l-.316.949zm26.642 8.895l-.316.948h0l.316-.948zm25.119 8.386l.317-.949h-.001l-.316.949zm.054.021l.327-.945h0l-.327.945zm.648.272l-.45.893h0l.45-.893zm.23.126l.497-.868h-.001l-.496.868zm.087.049l-.513.858h0l.513-.858zm.246.158l.563-.826h0l-.563.826zm.055.037l-.575.818v.001l.575-.819zm.196.147l.615-.789h0l-.615.789zm.095.075l-.634.773h0l.634-.773zm.164.143l.669-.744h0l-.669.744zm.098.088l-.689.725h0l.689-.725zm.142.142l.719-.695-.001-.001-.718.696zm.107.112l-.74.672h0l.74-.672zm.118.137l.765-.644h0l-.765.644zm.103.123l-.786.619h0l.786-.619zm.126.171l.812-.584h0l-.812.584zm.07.097l-.826.564.001.001.825-.565zm.119.186l.85-.527h0l-.85.527zm.064.101l-.863.506h0l.863-.506zm.111.204l.885-.465h0l-.885.465zm.046.088l-.895.447h0l.895-.447zm.095.204l.914-.406h0l-.914.406zm.048.11l-.923.384h0l.923-.384zm.084.214l.939-.342h0l-.939.342zm.031.087l-.946.324v.001l.946-.325zm.071.227l.96-.28h0l-.96.28zm.03.107l-.966.259h0l.966-.259zm.049.194l.975-.221h0l-.975.221zm.029.138l-.981.194h0l.981-.194zm.037.214l.988-.153h0l-.988.153zm.015.102l.991-.133h0l-.991.133zm.025.216l-.996.091h0l.996-.091zm.01.13l.998-.066h0l-.998.066zm.01.204l-1 .026h0l1-.026zm.001.132l1-.001h0l-1 .001zm-.004.219l-.999-.043h0l.999.043zm-.005.086l.998.059h0l-.998-.059zm-.021.249l-.994-.108h0l.994.108zm-.012.105l.991.128h0l-.991-.128zm-.032.206l-.985-.17v.001l.985.169zm-.028.148l.98.199h0l-.98-.199zm-.04.187l-.972-.237v.001l.972.236zm-.031.113l.966.26h0l-.966-.26zm-.067.234l-.952-.307v.001l.952.306zm-.023.066l.948.32h0l-.948-.32zm-.084.234l-.93-.367h0l.93.367zm-.05.118l.92.392h0l-.92-.392zm-.089.2l-.901-.433h0l.901.433zm-.055.109l.89.455h0l-.89-.455zm-.101.19l-.869-.494h0l.869.494zm-.073.119l.855.519h0l-.855-.519zm-.11.178l-.831-.555h0l.831.555zm-.077.108l.816.579h0l-.816-.579zm-.131.18l-.788-.615h0l.788.615zm-.076.091l.774.635v-.001l-.774-.634zm-.149.177l-.742-.67h0l.742.67zm-.086.09l.725.689h0l-.725-.689zm-.74.643l.549.836.015-.01.015-.011-.579-.815zm-.33.216l.517.856.016-.009.015-.01-.548-.837zm-11.859 7.162l-.697.717a95.01 95.01 0 0 0 35.871 21.916l.32-.948.32-.947a93.01 93.01 0 0 1-35.117-21.455l-.697.717zm35.494 21.685l-.32.948 4.891 1.65.319-.948.32-.947-4.89-1.65-.32.947zm4.89 1.65l-.319.948a95 95 0 0 0 44.895 3.866l-.153-.989-.153-.988c-14.741 2.282-29.816.984-43.95-3.784l-.32.947zm44.423 3.825l.153.989 7.828-1.211-.153-.988-.153-.989-7.828 1.211.153.988zm7.828-1.21l.153.988a95.03 95.03 0 0 0 33.158-11.718l-.502-.865-.502-.865a93.01 93.01 0 0 1-32.46 11.471l.153.989zm32.809-11.595l.502.865 21.973-12.753-.502-.864-.502-.865-21.973 12.752.502.865zm21.973-12.752l-.865.502 18.071 31.135.865-.502.865-.502-18.072-31.135-.864.502zm18.071 31.135l-.502-.865-21.974 12.753.502.865.502.865 21.974-12.753-.502-.865zm-21.974 12.753l-.502-.865a129.01 129.01 0 0 1-45.025 15.912l.153.988.153.988c16.113-2.493 31.621-7.973 45.723-16.158l-.502-.865zm-45.374 16.035l-.153-.988-7.827 1.211.153.988.153.989 7.827-1.212-.153-.988zm-7.827 1.211l-.153-.988c-20.448 3.165-41.358 1.364-60.964-5.25l-.319.948-.32.947c19.91 6.717 41.144 8.545 61.909 5.332l-.153-.989zm-61.436-5.29l.319-.948-4.89-1.65-.32.948-.319.947 4.89 1.65.32-.947zm-4.891-1.65l.32-.948a129 129 0 0 1-55.119-36.46l-.747.665-.747.665a131 131 0 0 0 55.974 37.025l.319-.947zm-55.546-36.743l-.517-.856-17.152 10.357.517.856.517.856 17.152-10.357-.517-.856zm-17.152 10.357l-.485-.875-.346.192.485.875.485.874.346-.192-.485-.874zm-.346.192l-.452-.892a4.69 4.69 0 0 1-.273.126l.387.922.387.922c.136-.057.271-.119.403-.187l-.452-.891zm-.338.156l-.387-.922-.045.016-.049.019.364.931.364.932.036-.014a1.22 1.22 0 0 0 .104-.04l-.387-.922zm-.117.044l-.364-.931-.178.068.32.947.319.948c.104-.035.208-.077.267-.1l-.364-.932zm-.222.084l-.319-.948c-.011.004-.017.006-.027.008l-.034.01a1.94 1.94 0 0 0-.049.015l.292.956.292.956c.013-.003.022-.006.054-.015.026-.008.066-.019.11-.034l-.319-.948zm-.137.041l-.292-.956-.168.049.249.969.249.968c.098-.025.195-.056.254-.074l-.292-.956zm-.211.062l-.249-.969c-.027.007-.027.006-.105.024l.222.975.222.975c.01-.002.098-.021.159-.037l-.249-.968zm-.132.03l-.222-.975c-.066.015-.121.027-.171.036l.178.984.177.984c.094-.017.183-.037.26-.054l-.222-.975zm-.215.045l-.178-.984-.102.016.151.988.151.989c.036-.006.096-.014.155-.025l-.177-.984zm-.129.02l-.152-.988c-.059.009-.116.017-.171.022l.106.995.107.994a5.15 5.15 0 0 0 .261-.034l-.151-.989zm-.217.029l-.106-.995c-.029.004-.06.006-.105.01l.078.997.079.997.161-.015-.107-.994zm-.133.012l-.079-.997c-.063.005-.118.008-.168.01l.035.999.034 1a5.79 5.79 0 0 0 .257-.015l-.079-.997zm-.212.012l-.035-.999c-.028.001-.06.002-.098.002l.01 1 .009 1 .148-.003-.034-1zm-.123.003l-.01-1c-.061 0-.121 0-.18-.002l-.037.999-.037.999a5 5 0 0 0 .273.004l-.009-1zm-.227-.003l.038-.999-.097-.005-.063.998-.062.998.147.007.037-.999zm-.122-.006l.063-.998-.163-.014-.104.995-.104.994a5.1 5.1 0 0 0 .246.021l.062-.998zm-.204-.017l.104-.995c-.033-.003-.069-.008-.11-.013l-.132.991-.133.991a5.16 5.16 0 0 0 .167.02l.104-.994zm-.138-.017l.132-.991c-.051-.007-.104-.015-.162-.026l-.174.985-.174.985c.078.014.16.027.245.038l.133-.991zm-.204-.032l.174-.985-.095-.017-.198.981-.197.98c.055.011.117.021.142.026l.174-.985zm-.119-.021l.198-.981c-.057-.011-.115-.024-.176-.039l-.241.97-.242.97a5.74 5.74 0 0 0 .264.06l.197-.98zm-.219-.05l.242-.97-.088-.022-.264.964-.264.965c.051.014.113.028.132.033l.242-.97zm-.11-.028l.264-.964a3.91 3.91 0 0 1-.17-.052l-.306.952-.306.952a6.02 6.02 0 0 0 .254.077l.264-.965zm-.212-.064l.306-.952-.087-.028-.328.945-.328.945.13.042.307-.952zm-.109-.035l.328-.945c-.044-.015-.091-.034-.162-.062l-.367.93-.367.931c.062.024.149.059.241.091l.327-.945zm-.201-.077l.367-.93c-.08-.031-.063-.023-.09-.035l-.39.921-.389.921c.034.015.065.027.087.035l.047.018.368-.93zm-.113-.044l.39-.921c-.058-.024-.119-.053-.191-.087l-.436.9-.436.9c.085.04.181.086.284.129l.389-.921zm-.237-.108l.436-.9c-.013-.007-.025-.012-.033-.016s-.017-.008-.019-.009l-.441.898-.447.894c.029.015.054.026.064.031l.44-.898zm-.057-.027l.447-.895a4.14 4.14 0 0 1-.898-.606l-.663.748-.664.748c.402.357.851.66 1.331.9l.447-.895zm-1.114-.753l.663-.748c-.016-.016-.026-.026-.038-.036l-.673.739-.673.739c.009.01.031.031.057.054l.664-.748zm-.048-.045l.673-.739c-.059-.054-.109-.101-.154-.147l-.711.704-.71.703c.079.08.157.153.229.218l.673-.739zm-.192-.182l.711-.704c-.015-.015-.016-.017-.055-.058l-.725.689-.724.689c.006.007.051.055.083.087l.71-.703zm-.069-.073l.725-.689a3.74 3.74 0 0 1-.128-.14l-.755.655-.756.656c.064.073.128.143.19.207l.724-.689zm-.158-.174l.756-.655-.02-.023-.032-.04-.769.64-.769.639c.006.007.01.012.025.031a1.83 1.83 0 0 0 .053.063l.756-.655zm-.065-.078l.769-.64-.118-.146-.798.603-.797.603c.062.083.124.158.175.219l.769-.639zm-.147-.183l.798-.603c-.014-.019-.011-.015-.05-.07l-.811.586-.81.585a2.71 2.71 0 0 0 .076.105l.797-.603zm-.063-.087l.811-.586-.105-.15-.837.547-.836.548a5.08 5.08 0 0 0 .157.227l.81-.586zm-.131-.189l.837-.547-.043-.069-.848.531-.848.53.066.103.836-.548zm-.054-.085l.848-.531a3.87 3.87 0 0 1-.104-.176l-.874.486-.874.486c.05.09.102.179.156.265l.848-.53zm-.13-.221l.874-.485c-.007-.013-.015-.027-.026-.049l-.881.473-.881.474c.01.019.025.045.04.073l.874-.486zm-.033-.061l.881-.473a3.53 3.53 0 0 1-.093-.183l-.904.427-.905.426a5.94 5.94 0 0 0 .14.277l.881-.474zm-.116-.229l.904-.426a1.77 1.77 0 0 1-.034-.076l-.914.407-.913.407c.018.042.036.081.052.114l.905-.426zm-.044-.095l.914-.407a2.95 2.95 0 0 1-.076-.182l-.933.36-.933.36c.035.09.073.182.115.276l.913-.407zm-.095-.229l.933-.36c-.007-.019-.015-.039-.022-.061l-.94.344-.939.344.035.092.933-.359zm-.029-.077l.94-.344c-.026-.07-.05-.142-.072-.216l-.958.287-.958.288c.033.109.069.219.109.329l.939-.344zm-.09-.273l.958-.287-.012-.041-.961.277-.961.277a1.66 1.66 0 0 1 .018.062l.958-.288zm-.015-.051l.961-.277a3.42 3.42 0 0 1-.059-.237l-.977.216-.977.215c.026.116.056.237.091.36l.961-.277zm-.075-.298l.977-.216c-.004-.015-.007-.028-.009-.037-.006-.022-.005-.02-.005-.017s.003.01.005.02l-.979.206-.978.206c.003.017.007.032.009.042s.005.019.006.023l.974-.227zm-.011-.044l.979-.206c-.016-.075-.03-.154-.042-.238l-.989.145-.99.144c.017.119.038.239.064.361l.978-.206zm-.052-.299l.989-.145-.005-.032-.004-.023-.99.141-.991.132c.004.029.008.054.01.063l.991-.136zm-.01-.059l.991-.133a4.07 4.07 0 0 1-.023-.239l-.997.072-.998.071c.008.114.019.236.036.361l.991-.132zm-.029-.3l.997-.072-.003-.032c-.002-.029-.002-.026-.001-.018l-.999.058-.998.059.005.065.999-.06zm-.006-.064l.999-.058a4.04 4.04 0 0 1 .008-.602l-.996-.089-.997-.088a6.12 6.12 0 0 0-.012.896l.998-.059zm.011-.749l.992.127.049-.393-.992-.126-.992-.126-.049.392.992.126zm.049-.392l.987.161 8.812-53.851-.986-.161-.987-.162-8.812 53.851.986.162zm8.813-53.851l.986.161c.014-.083.028-.157.043-.226l-.976-.217-.976-.216c-.026.116-.047.229-.064.336l.987.162zm.053-.282l.976.216a4.06 4.06 0 0 1 .288-.84l-.904-.427-.905-.427a5.96 5.96 0 0 0-.431 1.262l.976.216zm.36-1.051l.904.427c.094-.199.201-.386.322-.56l-.823-.569-.822-.568c-.185.266-.346.548-.486.843l.905.427zm.403-.702l.823.569c.956-1.384 2.737-2.075 4.454-1.553l.291-.957.291-.956a6 6 0 0 0-6.681 2.329l.822.568zm5.568-1.941l-.291.957.048.014c.024.007.029.008.033.01s.015.004.02.005l.323-.946.316-.949c-.042-.014-.081-.025-.106-.033l-.052-.014-.291.956zm.133.04l-.317.948 26.643 8.895.316-.948.317-.949-26.643-8.895-.316.949zm26.642 8.895l-.316.948 25.118 8.386.317-.948.316-.949-25.118-8.386-.317.949zm25.119 8.386l-.317.948-.042-.015c-.004-.002.008.003.022.009s.037.015.064.024l.327-.945.327-.945c.018.006.031.012.037.014-.003-.001-.016-.007-.032-.013a1.67 1.67 0 0 0-.069-.026l-.317.949zm.054.021l-.327.945c.189.065.364.139.525.22l.45-.893.451-.893c-.249-.125-.507-.232-.772-.324l-.327.945zm.648.272l-.45.893c.052.026.106.057.184.101l.496-.868.496-.868c-.073-.042-.17-.098-.276-.151l-.45.893zm.23.126l-.496.868c.013.008.025.015.035.02s.02.011.024.013l.524-.852.514-.858c-.031-.019-.06-.034-.076-.043s-.024-.013-.028-.016l-.497.868zm.087.049l-.513.858c.061.037.125.079.195.126l.564-.826.563-.826c-.09-.061-.189-.126-.295-.19l-.514.858zm.246.158l-.564.826c.011.008.02.014.027.019.026.016.023.014.017.01l.575-.818.574-.819c-.023-.016-.045-.03-.054-.036l-.575.818zm.055.037l-.575.819a3.3 3.3 0 0 1 .156.117l.615-.789.615-.789c-.065-.05-.147-.114-.237-.177l-.574.819zm.196.147l-.615.789.076.059.634-.773.634-.773c-.043-.036-.102-.081-.114-.091l-.615.789zm.095.075l-.634.773c.037.03.075.064.13.113l.668-.743.669-.744a6.11 6.11 0 0 0-.199-.173l-.634.774zm.164.143l-.668.743.077.07.689-.725.688-.726-.117-.106-.669.744zm.098.088l-.689.725c.033.031.066.065.113.113l.718-.696.718-.696c-.046-.048-.106-.109-.172-.172l-.688.726zm.142.142l-.718.696.085.088.74-.672.74-.673c-.049-.054-.104-.109-.128-.134l-.719.695zm.107.112l-.74.672c.024.027.045.053.094.11l.764-.645.765-.644c-.03-.035-.086-.103-.144-.166l-.739.673zm.118.137l-.765.645c.058.068.062.071.082.097l.786-.619.785-.619c-.046-.059-.112-.134-.123-.148l-.765.644zm.103.123l-.786.619c.027.034.053.07.101.136l.811-.584.812-.584c-.035-.048-.092-.129-.153-.206l-.785.619zm.126.171l-.811.584.055.077.826-.564.826-.564c-.03-.044-.081-.113-.084-.117l-.812.584zm.07.097l-.825.565c.027.039.054.084.094.147l.85-.526.85-.527c-.038-.061-.087-.141-.143-.223l-.826.564zm.119.186l-.85.526.022.036c.012.018.014.021.016.025.011.017.012.018.012.019l.864-.505.862-.505c-.019-.034-.038-.063-.05-.082s-.019-.031-.026-.041l-.85.527zm.064.101l-.863.506a4.33 4.33 0 0 1 .088.162l.886-.464.885-.465a5.85 5.85 0 0 0-.134-.244l-.862.505zm.111.204l-.886.464.037.071.895-.447.894-.447c-.02-.04-.04-.079-.055-.106l-.885.465zm.046.088l-.895.447.077.163.913-.406.914-.406c-.035-.079-.073-.161-.115-.245l-.894.447zm.095.204l-.913.406.038.088.923-.384.924-.384-.058-.132-.914.406zm.048.11l-.923.384c.024.057.046.114.067.172l.94-.342.939-.342a5.22 5.22 0 0 0-.099-.256l-.924.384zm.084.214l-.94.342.025.069.946-.324.946-.325c-.014-.041-.03-.083-.038-.104l-.939.342zm.031.087l-.946.325c.018.052.036.111.057.182l.96-.28.96-.28c-.024-.081-.052-.175-.085-.272l-.946.325zm.071.227l-.96.28c.011.037.018.062.024.086l.966-.259.966-.26-.036-.127-.96.28zm.03.107l-.966.259a3.55 3.55 0 0 1 .039.156l.976-.221.975-.221a5.67 5.67 0 0 0-.058-.233l-.966.26zm.049.194l-.976.221.024.111.981-.194.981-.195-.035-.164-.975.221zm.029.138l-.981.194c.011.055.02.112.03.173l.988-.153.988-.153a6.01 6.01 0 0 0-.044-.256l-.981.195zm.037.214l-.988.153c.006.037.009.06.012.082l.991-.133.991-.133a4.19 4.19 0 0 0-.018-.122l-.988.153zm.015.102l-.991.133c.009.063.015.12.02.174l.996-.091.996-.091a5.59 5.59 0 0 0-.03-.258l-.991.133zm.025.216l-.996.091c.003.03.005.063.008.105l.998-.066.998-.066-.012-.155-.996.091zm.01.13l-.998.066a3.79 3.79 0 0 1 .008.164l1-.026 1-.026a7.26 7.26 0 0 0-.012-.244l-.998.066zm.01.204l-1 .026a2.79 2.79 0 0 1 .001.106h1l1-.001-.001-.157-1 .026zm.001.132h-1c0 .066-.001.123-.003.176l.999.043.999.042c.004-.093.005-.182.005-.262l-1 .001zm-.004.219l-.999-.043-.004.07.998.059.998.059c0-.006.004-.064.006-.103l-.999-.042zm-.005.086l-.998-.059-.017.2.994.108.995.108a6.86 6.86 0 0 0 .024-.298l-.998-.059zm-.021.249l-.994-.108c-.002.024-.006.05-.01.084l.992.129.991.128.016-.125-.995-.108zm-.012.105l-.992-.129a3.48 3.48 0 0 1-.025.165l.985.17.986.17c.014-.081.027-.164.037-.248l-.991-.128zm-.032.206l-.985-.169-.023.118.98.199.98.199.034-.177-.986-.17zm-.028.148l-.98-.199-.032.149.972.237.971.236c.021-.084.037-.167.049-.224l-.98-.199zm-.04.187l-.972-.236-.024.09.965.259.966.26.036-.137-.971-.236zm-.031.113l-.965-.259-.054.186.952.307.952.306a5.48 5.48 0 0 0 .081-.28l-.966-.26zm-.067.234l-.952-.306-.007.019c-.005.016-.008.024-.011.033l.947.32.948.32c.002-.006.003-.01.008-.025s.011-.032.019-.055l-.952-.306zm-.023.066l-.947-.32a4.39 4.39 0 0 1-.067.187l.93.367.93.368a6.2 6.2 0 0 0 .102-.282l-.948-.32zm-.084.234l-.93-.367-.04.094.92.391.92.392.06-.142-.93-.368zm-.05.118l-.92-.391-.07.158.901.433.902.432a5.98 5.98 0 0 0 .107-.24l-.92-.392zm-.089.2l-.901-.433-.045.087.891.455.89.455.067-.132-.902-.432zm-.055.109l-.891-.455-.079.151.869.494.87.494c.049-.086.092-.173.121-.229l-.89-.455zm-.101.19l-.869-.494-.014.023c-.012.018-.015.024-.019.03l-.026.041.855.519.855.519c.007-.012.012-.019.03-.047l.058-.097-.87-.494zm-.073.119l-.855-.519-.086.142.831.555.831.556c.055-.082.111-.176.134-.215l-.855-.519zm-.11.178l-.831-.555c-.007.008-.01.013-.015.021l-.02.026-.027.038.816.578.816.579c.007-.011.013-.018.031-.044.015-.02.038-.051.062-.087l-.832-.556zm-.077.108l-.816-.578-.103.143.788.615.789.615a7.05 7.05 0 0 0 .158-.216l-.816-.579zm-.131.18l-.788-.615s-.003.003-.014.016-.015.019-.019.023-.017.021-.028.033l.773.634.774.634.029-.034.062-.076-.789-.615zm-.076.091l-.773-.634a3.1 3.1 0 0 1-.118.141l.742.67.743.67c.071-.079.138-.162.18-.212l-.774-.635zm-.149.177l-.742-.67c-.016.017-.029.03-.036.037l-.033.034.725.689.725.689c.006-.007.01-.011.031-.032s.043-.044.073-.077l-.743-.67zm-.086.09l-.725-.689a4.09 4.09 0 0 1-.593.516l.578.816.579.815a6.1 6.1 0 0 0 .886-.769l-.725-.689zm-.74.643l-.548-.837-.33.217.548.836.548.837.331-.217-.549-.836zm-.33.216l-.517-.856-11.859 7.162.517.856.517.856 11.859-7.162-.517-.856z" fill="#000"/><g stroke-width="8" stroke-linecap="round"><path d="M346 484.515C346 484.515 364.557 465.922 379.466 459.014C394.374 452.106 405.931 449.624 423.466 450.013C441 450.403 456.729 455.421 469.966 462.514C483.202 469.607 499.999 486.528 499.999 486.528" stroke="url(#A)"/><path d="M485 543C485 543 468.095 554.374 456.777 559.382C445.46 564.391 436.606 566.375 423.054 566.641C409.503 566.907 397.215 564.061 386.794 559.769C376.373 555.478 356 540.5 356 540.5" stroke="url(#B)"/></g><g stroke="#000"><circle cx="422" cy="511" r="38.5" fill="#fff" stroke-width="7"/><path d="M502.5 513.5s-18.771 15.277-34.357 23.489-28.141 13.764-46.588 13.579-34.625-8.257-48.644-16.258S341 511 341 511m.001-.001s19.545-21.523 35.237-29.531S404.556 468.074 423 468.5s34.514 8.708 48.427 16.891 31.559 27.726 31.559 27.726" stroke-width="8" stroke-linecap="round"/></g><circle cx="420.5" cy="510.5" r="22.5" fill="#000"/><circle cx="430.5" cy="493.5" r="12.5" fill="#fff"/><defs><linearGradient id="A" x1="423.642" y1="450.009" x2="424.723" y2="485.461" gradientUnits="userSpaceOnUse"><stop offset=".486"/><stop offset="1" stop-color="#fff"/></linearGradient><linearGradient id="B" x1="405.5" y1="568" x2="405.5" y2="539" gradientUnits="userSpaceOnUse"><stop/><stop offset="1" stop-color="#fff"/></linearGradient></defs></svg>